<svg width="20" height="20" viewBox="0 0 20 20" fill="none" xmlns="http://www.w3.org/2000/svg">
<g clip-path="url(#clip0_1_300)">
<path d="M19.4156 9.10971H18.0519H3.83117V2.77878C3.83117 2.35012 4.15584 2.02038 4.57792 2.02038H7.07792V2.97662C6.3961 3.07554 5.84416 3.66906 5.84416 4.39448V5.84532C5.84416 6.17506 6.1039 6.43885 6.42857 6.43885H8.73377C9.05844 6.43885 9.31818 6.17506 9.31818 5.84532V4.39448C9.31818 3.73501 8.86364 3.17446 8.24675 3.00959V1.42686C8.24675 1.09712 7.98701 0.833332 7.66234 0.833332H4.57792C3.53896 0.833332 2.69481 1.69065 2.69481 2.7458V9.07674H2.17532H1.94805H0.584416C0.25974 9.07674 0 9.34053 0 9.67026C0 10 0.25974 10.2638 0.584416 10.2638H1.36364V12.9017C1.36364 14.8471 2.79221 16.4628 4.64286 16.7266L3.92857 18.3423C3.7987 18.6391 3.92857 18.9688 4.22078 19.1007C4.28571 19.1337 4.38312 19.1667 4.44805 19.1667C4.67532 19.1667 4.87013 19.0348 4.96753 18.8369L5.87662 16.7926H14.8052C14.8701 16.7926 14.9351 16.7926 15.0325 16.7926L15.9416 18.8369C16.039 19.0677 16.2338 19.1667 16.461 19.1667C16.526 19.1667 16.6234 19.1667 16.6883 19.1007C16.9805 18.9688 17.1104 18.6391 16.9805 18.3423L16.1688 16.5288C17.5974 15.9682 18.6364 14.5504 18.6364 12.9017V10.2638H19.4156C19.7403 10.2638 20 10 20 9.67026C20 9.3735 19.7403 9.10971 19.4156 9.10971ZM8.14935 5.28477H6.98052V4.39448C6.98052 4.22961 7.11039 4.09772 7.27273 4.09772H7.85714C8.01948 4.09772 8.14935 4.22961 8.14935 4.39448V5.28477ZM17.5 12.9017C17.5 14.3855 16.2987 15.6385 14.8052 15.6385H5.19481C3.73377 15.6385 2.5 14.4185 2.5 12.9017V10.2638H17.5V12.9017Z" fill="#45525B"/>
</g>
<defs>
<clipPath id="clip0_1_300">
<rect width="20" height="20" fill="white"/>
</clipPath>
</defs>
</svg>
