<svg width="102" height="37" viewBox="0 0 102 37" fill="none" xmlns="http://www.w3.org/2000/svg">
<g clip-path="url(#clip0_1_558)">
<path fill-rule="evenodd" clip-rule="evenodd" d="M57.5929 24.5816C59.0075 24.5816 60.136 24.9396 60.9794 25.6561C61.8223 26.3726 62.2867 27.3388 62.3726 28.5545H59.5002C59.4575 28.0765 59.261 27.6968 58.9113 27.415C58.5607 27.1323 58.0926 26.9917 57.5074 26.9917C56.9641 26.9917 56.5461 27.0923 56.2531 27.2956C55.9605 27.4978 55.8137 27.7806 55.8137 28.1419C55.8137 28.5474 56.0144 28.8551 56.4137 29.0653C56.8141 29.2747 57.4359 29.4883 58.2793 29.7056C59.1366 29.922 59.8439 30.1474 60.4012 30.3788C60.9585 30.6103 61.4396 30.9678 61.8469 31.4528C62.2542 31.9378 62.465 32.5786 62.4794 33.3746C62.4794 34.0689 62.2899 34.6918 61.9114 35.2422C61.5329 35.7917 60.9896 36.2226 60.2823 36.5336C59.575 36.8445 58.7502 36.9998 57.8074 36.9998C56.835 36.9998 55.9637 36.8224 55.1928 36.4682C54.421 36.1139 53.8098 35.6327 53.3598 35.0249C52.9098 34.4171 52.6636 33.7439 52.62 33.0053H55.6428C55.6995 33.4691 55.9247 33.8525 56.3176 34.1564C56.71 34.4603 57.1995 34.6123 57.7856 34.6123C58.3568 34.6123 58.8041 34.4966 59.125 34.2651C59.4468 34.0336 59.6075 33.7368 59.6075 33.3746C59.6075 32.9841 59.411 32.6905 59.0177 32.4953C58.6253 32.2991 58.0002 32.0865 57.1429 31.855C56.2568 31.6377 55.5318 31.4133 54.968 31.1819C54.4029 30.9504 53.9171 30.5952 53.5098 30.1182C53.1025 29.6402 52.8991 28.9962 52.8991 28.1852C52.8991 27.52 53.0886 26.9121 53.4671 26.3617C53.8456 25.8113 54.3889 25.3776 55.0962 25.0586C55.8035 24.7406 56.6353 24.5816 57.5929 24.5816ZM75.3389 24.5819C76.2241 24.5819 76.9997 24.763 77.6642 25.1243C78.3288 25.4865 78.8605 25.9424 79.2609 26.4919V24.7771H82.2828V36.8048H79.2609V35.0458C78.8754 35.6104 78.3427 36.0775 77.6642 36.4459C76.9857 36.8152 76.2032 37 75.3171 37C74.3168 37 73.4065 36.7394 72.585 36.2182C71.7625 35.6979 71.1128 34.963 70.634 34.0151C70.1552 33.0672 69.9165 31.9776 69.9165 30.747C69.9165 29.5314 70.1552 28.4536 70.634 27.5122C71.1128 26.5723 71.7625 25.8488 72.585 25.3416C73.4065 24.8354 74.3237 24.5819 75.3389 24.5819ZM96.1489 24.5816C97.2774 24.5816 98.2894 24.8272 99.182 25.3193C100.074 25.8114 100.767 26.5104 101.261 27.4151C101.754 28.3197 102 29.3575 102 30.5308C102 30.9646 101.971 31.355 101.915 31.7031H93.2343C93.3058 32.5716 93.6058 33.2518 94.1343 33.7439C94.6628 34.236 95.3134 34.4816 96.0844 34.4816C97.1989 34.4816 97.9926 33.9975 98.4635 33.0274H101.7C101.357 34.1856 100.7 35.1369 99.7281 35.8825C98.7566 36.6282 97.5635 36.9998 96.1489 36.9998C95.0055 36.9998 93.9811 36.743 93.0731 36.2297C92.1661 35.7155 91.4588 34.9887 90.9512 34.0478C90.4446 33.1069 90.191 32.0212 90.191 30.7905C90.191 29.5467 90.4404 28.4538 90.941 27.512C91.4407 26.5721 92.1411 25.8485 93.0416 25.3414C93.9416 24.8352 94.9777 24.5816 96.1489 24.5816ZM51.8271 21.6284V24.1039H46.1474V27.9036H51.1849V30.3132H46.1474V34.3293H51.8271V36.8048H43.1473V21.6284H51.8271ZM67.1519 21.8024V24.777H69.8092V27.2736H67.1519V33.0924C67.1519 33.4975 67.248 33.7906 67.4407 33.9717C67.6339 34.1528 67.9585 34.2427 68.4164 34.2427H69.8092V36.8047H67.9228C65.3936 36.8047 64.129 35.5599 64.129 33.0708V27.2736H62.7144V24.777H64.129V21.8024H67.1519ZM87.4272 21.8024V24.777H90.0845V27.2736H87.4272V33.0924C87.4272 33.4975 87.5233 33.7906 87.716 33.9717C87.9092 34.1528 88.2339 34.2427 88.6918 34.2427H90.0845V36.8047H88.1981C85.6689 36.8047 84.4043 35.5599 84.4043 33.0708V27.2736H82.9897V24.777H84.4043V21.8024H87.4272ZM76.1098 27.2526C75.5526 27.2526 75.0389 27.3895 74.5671 27.6651C74.0952 27.9399 73.7135 28.3416 73.4205 28.869C73.1274 29.3982 72.9811 30.0234 72.9811 30.747C72.9811 31.4715 73.1274 32.1042 73.4205 32.6476C73.7135 33.19 74.099 33.6058 74.5778 33.8956C75.0566 34.1854 75.5674 34.3294 76.1098 34.3294C76.6671 34.3294 77.1887 34.1892 77.6754 33.9064C78.1602 33.6247 78.5466 33.2191 78.8327 32.6908C79.1178 32.1625 79.2609 31.5288 79.2609 30.7903C79.2609 30.0526 79.1178 29.4194 78.8327 28.8911C78.5466 28.3628 78.1602 27.9573 77.6754 27.6755C77.1887 27.3928 76.6671 27.2526 76.1098 27.2526ZM96.0635 27.0783C95.3204 27.0783 94.6953 27.3064 94.1877 27.7623C93.681 28.2181 93.3699 28.8513 93.2556 29.6614H98.8926C98.8778 28.8805 98.5996 28.2544 98.0562 27.7844C97.5138 27.3135 96.8493 27.0783 96.0635 27.0783Z" fill="#45525B"/>
<path fill-rule="evenodd" clip-rule="evenodd" d="M20.8587 0L35.9353 15.3071V36.8048H32.4369V16.773L18.3825 2.50838L20.8587 0ZM10.968 10.0331L21.9354 21.1712V36.8049H0V21.1712L10.968 10.0331ZM15.9132 5.01652L28.939 18.2391V36.8045H25.4406V19.705L13.4439 7.5249L15.9132 5.01652Z" fill="#FF8A63"/>
</g>
<defs>
<clipPath id="clip0_1_558">
<rect width="102" height="37" fill="white"/>
</clipPath>
</defs>
</svg>
