<svg width="20" height="20" viewBox="0 0 20 20" fill="none" xmlns="http://www.w3.org/2000/svg">
<rect width="20" height="20" fill="#E5E5E5"/>
<g clip-path="url(#clip0_0_1)">
<rect width="1440" height="6770" transform="translate(-775 -3897)" fill="white"/>
<path d="M-775 -1083H665V121H-775V-1083Z" fill="#FAFAFC"/>
<path d="M19.4582 8.67086L15.8364 4.9538C15.3393 4.47195 14.5581 4.47195 14.061 4.88496C13.5639 5.3668 13.5639 6.12398 13.99 6.60582L16.0494 8.7397H1.27827C0.568121 8.7397 0 9.29037 0 9.97872C0 10.6671 0.568121 11.2177 1.27827 11.2177H16.1204L14.061 13.3516C13.5639 13.8335 13.6349 14.5906 14.132 15.0725C14.3451 15.279 14.7001 15.4166 14.9842 15.4166C15.3393 15.4166 15.6233 15.279 15.9074 15.0725L19.5292 11.3554C20.1683 10.5294 20.1683 9.42804 19.4582 8.67086Z" fill="#45525B"/>
</g>
<defs>
<clipPath id="clip0_0_1">
<rect width="1440" height="6770" fill="white" transform="translate(-775 -3897)"/>
</clipPath>
</defs>
</svg>
